<svg width="41" height="41" viewBox="0 0 41 41" fill="none" xmlns="http://www.w3.org/2000/svg">
<g id="Frame">
<path id="Vector" d="M33.4982 19.6897C30.821 15.1571 25.836 12.3415 20.5095 12.3415C15.1737 12.3415 10.1979 15.1571 7.52078 19.6897C7.45733 19.7957 7.42383 19.917 7.42383 20.0405C7.42383 20.1641 7.45733 20.2853 7.52078 20.3913C10.1979 24.924 15.1737 27.7396 20.5095 27.7396C25.8453 27.7396 30.821 24.924 33.4982 20.3913C33.5616 20.2853 33.5951 20.1641 33.5951 20.0405C33.5951 19.917 33.5616 19.7957 33.4982 19.6897ZM8.92396 20.0497C10.3271 17.8342 12.3488 16.1079 14.6936 15.0186C13.5212 16.3664 12.8104 18.1296 12.8104 20.0497C12.8104 21.9699 13.5212 23.7331 14.6936 25.0809C12.3298 23.9887 10.3278 22.2429 8.92396 20.0497ZM20.5095 26.3641C17.0292 26.3641 14.1951 23.53 14.1951 20.0497C14.1951 16.5695 17.0292 13.7354 20.5095 13.7354C23.9897 13.7354 26.8238 16.5695 26.8238 20.0497C26.8238 23.53 23.9897 26.3641 20.5095 26.3641ZM26.3253 25.0717C27.4977 23.7239 28.2085 21.9607 28.2085 20.0405C28.2085 18.1204 27.4977 16.3572 26.3253 15.0094C28.6701 16.0987 30.6918 17.825 32.095 20.0405C30.6918 22.2561 28.6701 23.9916 26.3253 25.0717ZM20.5095 15.5356C19.6166 15.5356 18.7439 15.8003 18.0015 16.2963C17.2592 16.7924 16.6806 17.4974 16.3389 18.3222C15.9972 19.1471 15.9078 20.0548 16.082 20.9304C16.2562 21.8061 16.6861 22.6104 17.3175 23.2418C17.9488 23.8731 18.7531 24.303 19.6288 24.4772C20.5045 24.6514 21.4121 24.562 22.237 24.2203C23.0618 23.8787 23.7669 23.3001 24.2629 22.5577C24.7589 21.8153 25.0237 20.9426 25.0237 20.0497C25.0237 17.5572 22.9927 15.5356 20.5095 15.5356ZM20.5095 23.1792C18.7832 23.1792 17.38 21.776 17.38 20.0497C17.38 18.3235 18.7832 16.9203 20.5095 16.9203C22.2358 16.9203 23.6389 18.3235 23.6389 20.0497C23.6389 21.776 22.2358 23.1792 20.5095 23.1792ZM20.5095 17.1972C18.9401 17.1972 17.6569 18.4712 17.6569 20.0497C17.6569 20.4282 17.9708 20.7421 18.3493 20.7421C18.7278 20.7421 19.0417 20.4282 19.0417 20.0497C19.0417 19.2466 19.6971 18.5819 20.5095 18.5819C20.888 18.5819 21.2018 18.2681 21.2018 17.8896C21.2018 17.5111 20.888 17.1972 20.5095 17.1972ZM30.701 25.1917C30.3225 25.1917 30.0087 25.5056 30.0087 25.884V28.912H27.5715V28.155C27.5715 27.7765 27.2577 27.4626 26.8792 27.4626C26.5007 27.4626 26.1868 27.7765 26.1868 28.155V34.0077H14.8321V28.155C14.8321 27.7765 14.5182 27.4626 14.1397 27.4626C13.7613 27.4626 13.4474 27.7765 13.4474 28.155V28.912H11.0103V25.884C11.0103 25.5056 10.6964 25.1917 10.3179 25.1917C9.93942 25.1917 9.62555 25.5056 9.62555 25.884V34.7001C9.62555 35.0786 9.93942 35.3925 10.3179 35.3925H30.701C31.0795 35.3925 31.3934 35.0786 31.3934 34.7001V25.884C31.3934 25.5056 31.0795 25.1917 30.701 25.1917ZM13.4474 34.0077H11.0103V32.8446H13.4474V34.0077ZM13.4474 31.4599H11.0103V30.2967H13.4474V31.4599ZM30.0087 34.0077H27.5715V32.8446H30.0087V34.0077ZM30.0087 31.4599H27.5715V30.2967H30.0087V31.4599ZM10.3179 14.8986C10.6964 14.8986 11.0103 14.5847 11.0103 14.2062V11.1783H13.4474V11.9353C13.4474 12.3138 13.7613 12.6276 14.1397 12.6276C14.5182 12.6276 14.8321 12.3138 14.8321 11.9353V6.09175H26.1868V11.9445C26.1868 12.323 26.5007 12.6369 26.8792 12.6369C27.2577 12.6369 27.5715 12.323 27.5715 11.9445V11.1875H30.0087V14.2155C30.0087 14.5939 30.3225 14.9078 30.701 14.9078C31.0795 14.9078 31.3934 14.5939 31.3934 14.2155V5.39939C31.3934 5.0209 31.0795 4.70703 30.701 4.70703H10.3179C9.93942 4.70703 9.62555 5.0209 9.62555 5.39939V14.2155C9.62555 14.5939 9.93019 14.8986 10.3179 14.8986ZM27.5715 6.09175H30.0087V7.25492H27.5715V6.09175ZM27.5715 8.63964H30.0087V9.80281H27.5715V8.63964ZM11.0103 6.09175H13.4474V7.25492H11.0103V6.09175ZM11.0103 8.63964H13.4474V9.80281H11.0103V8.63964Z" fill="#F4D059"/>
</g>
</svg>
